<svg width="60" height="53" viewBox="0 0 512 512" fill="none" xmlns="http://www.w3.org/2000/svg">
  <g><path fill="#2AA842" d="M 435.5,169.5 C 434.667,208.665 434.167,247.998 434,287.5C 429.209,312.291 414.375,327.125 389.5,332C 334.5,332.333 279.5,332.667 224.5,333C 199.908,349.117 175.908,365.95 152.5,383.5C 136.385,394.066 120.385,404.899 104.5,416C 95.8887,420.057 89.3887,417.891 85,409.5C 84.5,383.835 84.3334,358.169 84.5,332.5C 73.1618,332.667 61.8284,332.5 50.5,332C 26.0921,326.926 11.9254,312.093 8,287.5C 7.33333,209.167 7.33333,130.833 8,52.5C 12.8333,27.6667 27.6667,12.8333 52.5,8C 165.167,7.33333 277.833,7.33333 390.5,8C 413.248,12.081 427.748,25.2477 434,47.5C 435.453,88.1394 435.953,128.806 435.5,169.5 Z"/></g>
  <g><path fill="#cbd5db" d="M 272.5,93.5 C 272.295,107.955 267.295,120.455 257.5,131C 255.112,132.861 252.446,134.194 249.5,135C 259.009,135.17 268.342,135.67 277.5,136.5C 240.167,136.5 202.833,136.5 165.5,136.5C 174.324,135.67 183.324,135.17 192.5,135C 186.057,132.223 181.223,127.723 178,121.5C 172.74,112.89 170.24,103.557 170.5,93.5C 172.315,89.5212 175.315,86.6878 179.5,85C 207.167,84.3333 234.833,84.3333 262.5,85C 264.5,86 266.5,87 268.5,88C 269.697,90.0153 271.03,91.8487 272.5,93.5 Z"/></g>
  <g><path fill="#e3e9ee" d="M 170.5,93.5 C 170.24,103.557 172.74,112.89 178,121.5C 181.223,127.723 186.057,132.223 192.5,135C 183.324,135.17 174.324,135.67 165.5,136.5C 142.697,140.47 130.03,153.97 127.5,177C 128.42,200.25 140.087,214.917 162.5,221C 200.833,221.667 239.167,221.667 277.5,221C 303.254,215.668 315.754,199.835 315,173.5C 311.253,152.252 298.753,139.919 277.5,136.5C 268.342,135.67 259.009,135.17 249.5,135C 252.446,134.194 255.112,132.861 257.5,131C 267.295,120.455 272.295,107.955 272.5,93.5C 305.277,91.8145 329.111,105.481 344,134.5C 345.145,137.432 345.978,140.432 346.5,143.5C 347.966,146.247 348.799,149.247 349,152.5C 350.032,172.569 349.532,192.569 347.5,212.5C 339.29,240.205 320.957,257.038 292.5,263C 244.5,263.667 196.5,263.667 148.5,263C 121.187,256.185 103.521,239.352 95.5,212.5C 94.8951,209.873 94.3951,207.207 94,204.5C 93.3333,186.5 93.3333,168.5 94,150.5C 94.813,148.564 95.313,146.564 95.5,144.5C 107.716,108.983 132.716,91.9831 170.5,93.5 Z"/></g>
  <g><path fill="#132359" d="M 165.5,136.5 C 202.833,136.5 240.167,136.5 277.5,136.5C 298.753,139.919 311.253,152.252 315,173.5C 315.754,199.835 303.254,215.668 277.5,221C 239.167,221.667 200.833,221.667 162.5,221C 140.087,214.917 128.42,200.25 127.5,177C 130.03,153.97 142.697,140.47 165.5,136.5 Z"/></g>
  <g><path fill="#cdd6dc" d="M 95.5,144.5 C 95.313,146.564 94.813,148.564 94,150.5C 93.3333,168.5 93.3333,186.5 94,204.5C 94.3951,207.207 94.8951,209.873 95.5,212.5C 69.9414,215.108 57.9414,203.608 59.5,178C 58.4213,153.01 70.4213,141.843 95.5,144.5 Z"/></g>
  <g><path fill="#cdd6dc" d="M 346.5,143.5 C 355.534,143.505 364.201,145.338 372.5,149C 381.57,156.371 385.236,165.871 383.5,177.5C 385.319,203.347 373.319,215.014 347.5,212.5C 349.532,192.569 350.032,172.569 349,152.5C 348.799,149.247 347.966,146.247 346.5,143.5 Z"/></g>
  <g><path fill="#6ffae1" d="M 177.5,166.5 C 190.322,164.496 196.156,169.829 195,182.5C 192.034,190.055 186.534,192.888 178.5,191C 171.241,187.307 168.741,181.474 171,173.5C 172.694,170.642 174.861,168.309 177.5,166.5 Z"/></g>
  <g><path fill="#6ffae1" d="M 256.5,165.5 C 270.586,166.339 275.086,173.339 270,186.5C 261.4,193.985 254.067,192.985 248,183.5C 245.76,174.983 248.594,168.983 256.5,165.5 Z"/></g>
  <g><path fill="#90EE90" d="M 435.5,169.5 C 445.506,169.334 455.506,169.5 465.5,170C 486.211,173.711 498.711,185.877 503,206.5C 503.982,272.203 503.649,337.87 502,403.5C 497.06,419.44 486.56,429.607 470.5,434C 461.546,435.264 452.546,435.764 443.5,435.5C 443.667,455.836 443.5,476.169 443,496.5C 439.867,502.327 435.034,504.493 428.5,503C 395.559,481.057 362.892,458.724 330.5,436C 284.5,435.667 238.5,435.333 192.5,435C 170.248,432.081 157.081,419.581 153,397.5C 152.501,392.845 152.334,388.179 152.5,383.5C 175.908,365.95 199.908,349.117 224.5,333C 279.5,332.667 334.5,332.333 389.5,332C 414.375,327.125 429.209,312.291 434,287.5C 434.167,247.998 434.667,208.665 435.5,169.5 Z"/></g>
</svg>